<svg width="48" height="48" viewBox="0 0 48 48" fill="none" xmlns="http://www.w3.org/2000/svg">
<g clip-path="url(#clip0_588_104)">
<path d="M24.0006 23.6994C28.3636 23.6994 31.9006 20.1625 31.9006 15.7994C31.9006 11.4364 28.3636 7.89941 24.0006 7.89941C19.6375 7.89941 16.1006 11.4364 16.1006 15.7994C16.1006 20.1625 19.6375 23.6994 24.0006 23.6994Z" fill="#7B42D9"/>
<path d="M30.0002 27.8994H18.0002C15.1002 27.8994 12.7002 30.2994 12.7002 33.1994V45.6994C16.2002 46.7994 20.0002 47.2994 24.0002 47.2994C28.0002 47.2994 31.8002 46.6994 35.3002 45.6994V33.1994C35.3002 30.2994 32.9002 27.8994 30.0002 27.8994Z" fill="#7B42D9"/>
<path d="M36.1996 0.599609C32.5996 0.599609 29.4996 3.09961 28.5996 6.39961C32.0996 8.09961 34.4996 11.6996 34.4996 15.7996C34.4996 15.8996 34.4996 16.0996 34.4996 16.1996C35.0996 16.2996 35.5996 16.3996 36.2996 16.3996C40.6996 16.3996 44.1996 12.8996 44.1996 8.49961C44.1996 4.09961 40.4996 0.599609 36.1996 0.599609Z" fill="#7B42D9"/>
<path d="M42.2002 20.5996H33.3002C32.2002 22.6996 30.4002 24.3996 28.2002 25.3996H30.0002C34.3002 25.3996 37.9002 28.8996 37.9002 33.2996V40.1996C41.3002 40.0996 44.5002 39.4996 47.5002 38.5996V25.8996C47.5002 22.9996 45.1002 20.5996 42.2002 20.5996Z" fill="#7B42D9"/>
<path d="M13.6 16.1996C13.6 16.0996 13.6 15.8996 13.6 15.7996C13.6 11.6996 16 8.09961 19.5 6.39961C18.6 2.99961 15.5 0.599609 11.9 0.599609C7.5 0.599609 4 4.09961 4 8.49961C4 12.8996 7.5 16.3996 11.9 16.3996C12.4 16.3996 13 16.2996 13.6 16.1996Z" fill="#7B42D9"/>
<path d="M10.1 33.2C10.1 28.9 13.6 25.3 18 25.3H19.9C17.7 24.3 15.9 22.6 14.8 20.5H5.8C2.9 20.5 0.5 22.9 0.5 25.8V38.3C3.5 39.2 6.8 39.8 10.1 39.9V33.2Z" fill="#7B42D9"/>
</g>
<defs>
<clipPath id="clip0_588_104">
<rect width="48" height="48" fill="white"/>
</clipPath>
</defs>
</svg>
