<svg width="50" height="50" viewBox="0 0 50 50" fill="none" xmlns="http://www.w3.org/2000/svg">
<path d="M39.7635 36.666C39.02 33.7965 36.4355 31.666 33.3335 31.666H28.3335V44.9995H33.3335C36.4355 44.9995 39.02 42.8685 39.7635 39.9995H45V36.666H39.7635ZM33.3335 41.666H31.6665V34.9995H33.3335C35.175 34.9995 36.6665 36.4915 36.6665 38.3325C36.6665 40.1735 35.175 41.666 33.3335 41.666ZM25 37.0825V33.7495H20V31.666H15C11.898 31.666 9.313 33.7965 8.5695 36.666H5V39.9995H8.5695C9.313 42.8685 11.898 44.9995 15 44.9995H20V42.916H25V39.5825H20V37.0825H25ZM16.6665 41.666H15C14.123 41.6553 13.2856 41.2994 12.6693 40.6754C12.053 40.0515 11.7073 39.2098 11.7073 38.3328C11.7073 37.4557 12.053 36.614 12.6693 35.9901C13.2856 35.3662 14.123 35.0103 15 34.9995H16.6665V41.666Z" fill="#7B42D9"/>
<path d="M23.1435 15L26.8935 5H23.334L18.334 18.3335H26.8575L23.1075 28.333H26.667L31.667 15H23.1435Z" fill="#7B42D9"/>
</svg>
