<svg width="63" height="59" viewBox="0 0 63 59" fill="none" xmlns="http://www.w3.org/2000/svg">
<path fill-rule="evenodd" clip-rule="evenodd" d="M30.6746 42L30.7559 41.8294C29.3744 41.1717 28.0733 40.2492 26.8935 39.1386C25.7001 38.869 24.5501 38.4847 23.4558 37.9981C24.5173 39.3703 25.73 40.6053 27.0592 41.6316C28.2327 41.8548 29.4407 41.9806 30.6746 42ZM29.9578 36.0088C31.0934 36.6424 32.3061 37.1817 33.5627 37.6148C34.7666 37.4317 35.9285 37.121 37.0343 36.697C35.8398 36.4664 34.6575 36.13 33.5196 35.6977C32.538 35.9075 31.5196 36.0179 30.4755 36.0179C30.3022 36.0179 30.1296 36.0149 29.9578 36.0088ZM27.9081 34.6993C27.5954 34.4711 27.2919 34.2348 26.9984 33.9907C24.4311 31.856 22.5629 29.0687 22.1535 25.8271C21.8392 23.3378 22.3966 20.6721 24.0285 17.9368C24.1202 17.7192 24.2214 17.5066 24.3315 17.2996C23.6679 17.7987 23.108 18.3568 22.6416 18.9585C21.0042 21.0706 20.4203 23.8476 20.7149 26.8285C20.8832 28.5313 21.3349 30.2698 22.0169 31.9446C20.9247 31.0571 19.9748 30.0013 19.2066 28.8168C19.085 28.2109 18.9936 27.6056 18.9342 27.0044C18.6078 23.7015 19.2371 20.4297 21.2272 17.8625C22.8749 15.7372 25.3879 14.1816 28.8518 13.4649C28.0978 13.3741 27.371 13.3799 26.6743 13.4682C24.0227 13.8042 21.6457 15.3551 19.7457 17.6711C18.6715 18.9805 17.769 20.5109 17.0697 22.1577C17.06 21.9488 17.0551 21.7386 17.0551 21.5273C17.0551 20.0826 17.2835 18.6912 17.7061 17.3873C17.9178 17.0954 18.1366 16.8116 18.3621 16.5366C20.4674 13.9704 23.2265 12.1018 26.4493 11.6934C28.9021 11.3827 31.5313 11.9293 34.2363 13.528C33.936 13.2169 33.6203 12.9346 33.2916 12.6797C31.1598 11.0263 28.3571 10.4242 25.3524 10.7002C24.1028 10.815 22.8346 11.08 21.5865 11.475C22.8733 10.3368 24.3802 9.44175 26.0354 8.86181C29.0684 8.73359 32.0258 9.43371 34.3884 11.2663C36.376 12.8078 37.8695 15.0939 38.6487 18.1927C38.6634 18.2313 38.6778 18.2701 38.6919 18.309C38.7348 17.707 38.7169 17.1225 38.6455 16.557C38.3075 13.8807 36.7515 11.4737 34.4317 9.54467C33.8963 9.09946 33.3241 8.68292 32.7222 8.29728C34.4791 8.59334 36.12 9.2307 37.5745 10.1388C39.0857 11.9218 40.1275 14.0108 40.4208 16.3329C40.7527 18.9613 40.1127 21.7864 38.2622 24.6823C38.9184 24.1898 39.4727 23.6401 39.9349 23.0482C41.5708 20.953 42.154 18.1996 41.8596 15.2427C41.8252 14.8972 41.779 14.5502 41.7213 14.2025C42.5963 15.5425 43.2381 17.0485 43.5893 18.6629C43.3141 20.658 42.5999 22.5424 41.3454 24.149C39.6755 26.2877 37.118 27.845 33.5842 28.5452C34.4278 28.6733 35.2377 28.6801 36.0098 28.585C38.6483 28.26 41.0081 26.7253 42.8913 24.4264C43.2062 24.0419 43.5062 23.6382 43.7903 23.2177C43.6065 24.68 43.1872 26.0689 42.5718 27.3455C40.7708 28.9539 38.6304 30.0647 36.2286 30.3606C33.624 30.6814 30.8172 30.031 27.9277 28.1767C28.3464 28.6733 28.8008 29.1062 29.283 29.4803C31.4148 31.1337 34.2175 31.7358 37.2222 31.4598C38.1478 31.3748 39.0836 31.2074 40.0138 30.9657C39.1159 31.8727 38.0894 32.6523 36.9641 33.2749C33.7833 33.4893 30.6591 32.8117 28.1862 30.8938C26.164 29.3253 24.6532 26.9862 23.8858 23.8045C23.8386 24.4229 23.8556 25.023 23.9288 25.6031C24.2668 28.2793 25.8228 30.6864 28.1426 32.6153C29.1952 33.4906 30.39 34.2551 31.6728 34.8918C31.2784 34.9267 30.879 34.9445 30.4755 34.9445C29.5974 34.9445 28.7391 34.8602 27.9081 34.6993ZM39.4054 32.9417C41.0602 32.6048 42.7161 32.0469 44.2998 31.3025C45.0495 30.3383 45.6965 29.2904 46.2244 28.1751C44.8976 29.0533 43.4607 29.7873 41.9801 30.3422C41.2347 31.3132 40.369 32.1871 39.4054 32.9417ZM44.4675 25.3214C45.855 23.5654 46.9678 21.4664 47.7402 19.2187C47.6015 17.8945 47.3091 16.6162 46.8812 15.4017C46.5287 17.4229 45.8748 19.4109 44.966 21.21C44.9683 21.3155 44.9694 21.4212 44.9694 21.5273C44.9694 22.8401 44.7948 24.1121 44.4675 25.3214ZM43.6812 15.5465C43.6699 15.3863 43.6562 15.226 43.6402 15.0655C43.3975 12.6277 42.622 10.1214 41.4344 7.79067C40.4035 6.97593 39.2748 6.27934 38.0688 5.72135C39.3943 7.53227 40.4418 9.58172 41.11 11.6816C42.1616 12.8163 43.0337 14.1196 43.6812 15.5465ZM35.1064 7.7921C33.1951 6.30835 30.9036 5.13789 28.4683 4.36545C27.209 4.55646 25.9956 4.88705 24.8443 5.34096C26.7621 5.6438 28.6645 6.22276 30.4194 7.03681C30.4381 7.03674 30.4568 7.0367 30.4755 7.0367C32.0949 7.0367 33.6523 7.30223 35.1064 7.7921ZM22.6425 9.33298C20.783 9.76397 18.932 10.4696 17.1934 11.4008C16.4976 12.4011 15.9076 13.4807 15.4398 14.6231C16.6132 13.7524 17.8937 12.9976 19.2289 12.3859C20.1966 11.1974 21.349 10.1651 22.6425 9.33298ZM16.0498 20.1118C15.4083 21.3778 14.881 22.7282 14.4828 24.1199C14.7151 25.3539 15.0822 26.5404 15.5683 27.6634C15.7126 26.5639 15.9474 25.4666 16.2655 24.3962C16.0792 23.4689 15.9815 22.5095 15.9815 21.5273C15.9815 21.0497 16.0046 20.5775 16.0498 20.1118ZM19.9281 31.4663C20.3155 32.5931 20.8003 33.703 21.3709 34.7718C22.3719 35.4731 23.4528 36.0681 24.5972 36.5405C23.982 35.7081 23.425 34.8236 22.9361 33.9056C21.8265 33.2287 20.8151 32.4068 19.9281 31.4663ZM42.1701 38.8003C40.537 38.9203 38.8559 38.8269 37.1948 38.5444C38.3165 38.1496 39.3889 37.6503 40.4004 37.0583C42.0888 37.0914 43.7411 36.8923 45.2654 36.4325C44.3112 37.3133 43.2752 38.1068 42.1701 38.8003ZM51.4225 26.0236C50.3225 27.2785 49.0328 28.4111 47.6224 29.389C48.1617 28.3251 48.6017 27.2024 48.9302 26.0331C50.1761 24.8536 51.229 23.53 52 22.1091C51.9296 23.4512 51.7332 24.7599 51.4225 26.0236ZM48.8568 9.88415C49.0504 11.6372 48.9948 13.4548 48.7193 15.2505C48.324 14.0307 47.806 12.8661 47.18 11.7711C47.1582 10.029 46.8877 8.33235 46.338 6.7834L46.458 6.74081C47.3519 7.70879 48.1559 8.76099 48.8568 9.88415ZM35.4 0.436909C36.8247 1.51502 38.1182 2.83037 39.2383 4.29712C38.0954 3.73312 36.8862 3.28299 35.6256 2.96154C34.4606 1.87925 33.1786 0.978185 31.8184 0.330634L31.9759 0C33.1447 0.0527348 34.2886 0.200908 35.4 0.436909ZM19.4233 3.45855C21.1217 3.2402 22.8886 3.2646 24.6444 3.50314C23.4772 3.92808 22.3645 4.46649 21.3197 5.10503C19.7113 5.14955 18.1506 5.413 16.7192 5.9208L16.6297 5.66877C17.4953 4.85632 18.4297 4.11635 19.4233 3.45855ZM10.3517 17.1159C11.3699 15.776 12.6033 14.5544 13.9789 13.4855C13.4948 14.5822 13.1135 15.7344 12.8473 16.9299C11.7832 18.072 10.8992 19.3273 10.2647 20.6595L10 20.5334C10.0249 19.3685 10.1446 18.2268 10.3517 17.1159ZM13.8285 33.0919C13.5673 31.4154 13.5452 29.6645 13.7353 27.9176C14.1933 29.0583 14.761 30.1431 15.4254 31.159C15.5044 32.6316 15.7682 34.0587 16.236 35.3767L15.8302 35.5207C15.1046 34.7631 14.4351 33.9512 13.8285 33.0919ZM31.2489 27.0729C30.2282 27.0666 29.2671 26.809 28.4244 26.3589C27.9524 26.0332 27.474 25.6691 26.9897 25.2641L26.9753 25.2814C26.3293 24.6326 25.8289 23.8388 25.5271 22.9532C25.3852 22.2837 25.277 21.5677 25.2063 20.8029C25.2283 20.075 25.3783 19.3792 25.6345 18.7374C26.0737 18.0159 26.6022 17.2797 27.2288 16.5308L27.1877 16.4964C27.8773 15.8672 28.7123 15.3946 29.6364 15.1347C30.1709 15.0382 30.7336 14.9621 31.3257 14.9082C32.4551 14.9152 33.5115 15.2298 34.4153 15.7725C34.7577 16.0132 35.1033 16.2742 35.4519 16.5564C36.0963 17.1617 36.6088 17.9058 36.9416 18.741C37.1327 19.5262 37.2754 20.3789 37.3633 21.3032C37.3147 22.2632 37.0434 23.1645 36.6001 23.9565C36.3513 24.3314 36.0783 24.71 35.7799 25.0921C35.0238 25.9195 34.042 26.5373 32.9319 26.8482C32.3993 26.9438 31.8387 27.0192 31.2489 27.0729Z" fill="url(#paint0_linear_596_118)"/>
<path d="M6.3 56H0.972V47.492H6.3V49.052H2.628V50.996H5.952V52.472H2.628V54.44H6.3V56ZM9.36206 56H7.76606V50.096H9.29006V50.816C9.61406 50.24 10.3701 49.928 11.0181 49.928C11.8221 49.928 12.4701 50.276 12.7701 50.912C13.2381 50.192 13.8621 49.928 14.6421 49.928C15.7341 49.928 16.7781 50.588 16.7781 52.172V56H15.2301V52.496C15.2301 51.86 14.9181 51.38 14.1861 51.38C13.5021 51.38 13.0941 51.908 13.0941 52.544V56H11.5101V52.496C11.5101 51.86 11.1861 51.38 10.4661 51.38C9.77006 51.38 9.36206 51.896 9.36206 52.544V56ZM19.559 52.376H22.199C22.175 51.788 21.791 51.212 20.879 51.212C20.051 51.212 19.595 51.836 19.559 52.376ZM22.355 53.912L23.687 54.308C23.387 55.328 22.451 56.18 20.999 56.18C19.379 56.18 17.951 55.016 17.951 53.024C17.951 51.14 19.343 49.916 20.855 49.916C22.679 49.916 23.771 51.08 23.771 52.976C23.771 53.204 23.747 53.444 23.747 53.468H19.523C19.559 54.248 20.219 54.812 21.011 54.812C21.755 54.812 22.163 54.44 22.355 53.912ZM28.6278 50.072V51.68C28.4478 51.644 28.2918 51.632 28.1478 51.632C27.3318 51.632 26.6238 52.028 26.6238 53.3V56H25.0278V50.096H26.5758V50.972C26.9358 50.192 27.7518 50.048 28.2558 50.048C28.3878 50.048 28.5078 50.06 28.6278 50.072ZM29.2718 56.324L30.7118 55.94C30.8198 56.588 31.3358 57.056 32.0918 57.056C33.0998 57.056 33.6638 56.552 33.6638 55.412V54.98C33.4238 55.364 32.8718 55.736 32.0198 55.736C30.4478 55.736 29.2718 54.524 29.2718 52.868C29.2718 51.308 30.3998 49.988 32.0198 49.988C32.9558 49.988 33.4958 50.396 33.6998 50.792V50.096H35.2358V55.364C35.2358 56.984 34.3598 58.46 32.1398 58.46C30.5198 58.46 29.4398 57.452 29.2718 56.324ZM32.2958 54.368C33.1118 54.368 33.6878 53.78 33.6878 52.868C33.6878 51.956 33.0638 51.38 32.2958 51.38C31.5038 51.38 30.8798 51.956 30.8798 52.868C30.8798 53.792 31.4678 54.368 32.2958 54.368ZM38.016 52.376H40.656C40.632 51.788 40.248 51.212 39.336 51.212C38.508 51.212 38.052 51.836 38.016 52.376ZM40.812 53.912L42.144 54.308C41.844 55.328 40.908 56.18 39.456 56.18C37.836 56.18 36.408 55.016 36.408 53.024C36.408 51.14 37.8 49.916 39.312 49.916C41.136 49.916 42.228 51.08 42.228 52.976C42.228 53.204 42.204 53.444 42.204 53.468H37.98C38.016 54.248 38.676 54.812 39.468 54.812C40.212 54.812 40.62 54.44 40.812 53.912ZM45.0808 52.604V56H43.4848V50.096H45.0328V50.828C45.3928 50.216 46.1008 49.94 46.7368 49.94C48.2008 49.94 48.8728 50.984 48.8728 52.28V56H47.2768V52.556C47.2768 51.896 46.9528 51.38 46.1848 51.38C45.4888 51.38 45.0808 51.92 45.0808 52.604ZM53.1446 51.392C52.3286 51.392 51.6446 51.98 51.6446 53.048C51.6446 54.116 52.3406 54.716 53.1566 54.716C53.9726 54.716 54.3806 54.176 54.5126 53.72L55.9166 54.188C55.6526 55.172 54.7286 56.18 53.1566 56.18C51.4166 56.18 50.0486 54.86 50.0486 53.048C50.0486 51.224 51.3926 49.916 53.1086 49.916C54.7166 49.916 55.6286 50.912 55.8806 51.908L54.4526 52.388C54.3086 51.896 53.9366 51.392 53.1446 51.392ZM58.1957 52.376H60.8357C60.8117 51.788 60.4277 51.212 59.5157 51.212C58.6877 51.212 58.2317 51.836 58.1957 52.376ZM60.9917 53.912L62.3237 54.308C62.0237 55.328 61.0877 56.18 59.6357 56.18C58.0157 56.18 56.5877 55.016 56.5877 53.024C56.5877 51.14 57.9797 49.916 59.4917 49.916C61.3157 49.916 62.4077 51.08 62.4077 52.976C62.4077 53.204 62.3837 53.444 62.3837 53.468H58.1597C58.1957 54.248 58.8557 54.812 59.6477 54.812C60.3917 54.812 60.7997 54.44 60.9917 53.912Z" fill="#565E6D"/>
<defs>
<linearGradient id="paint0_linear_596_118" x1="13.5" y1="5.5" x2="49.5" y2="32.5" gradientUnits="userSpaceOnUse">
<stop stop-color="#462FD8"/>
<stop offset="1" stop-color="#FF514F"/>
</linearGradient>
</defs>
</svg>
