<svg width="87" height="20" viewBox="0 0 87 20" fill="none" xmlns="http://www.w3.org/2000/svg">
<path fill-rule="evenodd" clip-rule="evenodd" d="M9.84506 20L9.88376 19.9187C9.22592 19.6056 8.60631 19.1663 8.04451 18.6374C7.47622 18.509 6.92862 18.3261 6.40754 18.0943C6.91299 18.7477 7.49048 19.3358 8.12342 19.8246C8.68222 19.9309 9.25749 19.9908 9.84506 20ZM9.50373 17.1471C10.0445 17.4488 10.622 17.7056 11.2203 17.9118C11.7936 17.8246 12.3469 17.6767 12.8735 17.4748C12.3047 17.365 11.7417 17.2048 11.1998 16.9989C10.7324 17.0988 10.2475 17.1514 9.75022 17.1514C9.66771 17.1514 9.58554 17.1499 9.50373 17.1471ZM8.52768 16.5235C8.37877 16.4148 8.23421 16.3023 8.09447 16.1861C6.87193 15.1695 5.98233 13.8422 5.7874 12.2986C5.63771 11.1133 5.90314 9.84386 6.68023 8.54135C6.72389 8.43774 6.77207 8.3365 6.82453 8.23788C6.50854 8.47559 6.24189 8.74135 6.01979 9.02784C5.24009 10.0336 4.96207 11.356 5.10234 12.7755C5.18247 13.5864 5.39759 14.4142 5.72235 15.2117C5.20224 14.7891 4.74989 14.2863 4.38409 13.7223C4.32619 13.4338 4.28267 13.1455 4.25438 12.8592C4.09896 11.2864 4.39864 9.72841 5.34631 8.50597C6.1309 7.4939 7.32756 6.75314 8.97704 6.41186C8.61801 6.36863 8.27191 6.37139 7.94015 6.41343C6.67745 6.57341 5.54556 7.31195 4.6408 8.41482C4.12928 9.03835 3.69951 9.7671 3.36651 10.5513C3.36191 10.4518 3.35958 10.3517 3.35958 10.2511C3.35958 9.56314 3.46834 8.90058 3.66959 8.27967C3.77039 8.14067 3.87456 8.00552 3.98197 7.87459C4.98446 6.65259 6.29832 5.76275 7.83302 5.5683C9.00099 5.42032 10.253 5.6806 11.5411 6.44189C11.3981 6.29375 11.2478 6.15936 11.0912 6.03797C10.0761 5.2506 8.74148 4.96391 7.31068 5.09533C6.71562 5.14999 6.11172 5.27619 5.51736 5.46429C6.13012 4.92229 6.84772 4.49607 7.63588 4.21991C9.0802 4.15885 10.4885 4.49225 11.6135 5.36488C12.56 6.09896 13.2712 7.18757 13.6422 8.66317C13.6492 8.68157 13.6561 8.70003 13.6628 8.71856C13.6832 8.4319 13.6747 8.15355 13.6407 7.88426C13.4798 6.60987 12.7388 5.46364 11.6341 4.54508C11.3792 4.33307 11.1067 4.13473 10.8201 3.95109C11.6567 4.09206 12.4381 4.39557 13.1307 4.828C13.8503 5.67705 14.3464 6.6718 14.4861 7.77756C14.6441 9.02917 14.3394 10.3745 13.4582 11.7535C13.7707 11.519 14.0346 11.2572 14.2547 10.9753C15.0337 9.97764 15.3114 8.66648 15.1712 7.25842C15.1549 7.0939 15.1329 6.92866 15.1054 6.7631C15.5221 7.40119 15.8277 8.11832 15.9949 8.8871C15.8639 9.83712 15.5238 10.7345 14.9264 11.4995C14.1312 12.518 12.9133 13.2595 11.2306 13.593C11.6323 13.654 12.0179 13.6572 12.3856 13.6119C13.6421 13.4572 14.7658 12.7263 15.6625 11.6316C15.8125 11.4485 15.9553 11.2563 16.0906 11.0561C16.0031 11.7524 15.8034 12.4138 15.5104 13.0217C14.6528 13.7876 13.6335 14.3165 12.4898 14.4574C11.2495 14.6102 9.91297 14.3005 8.53699 13.4175C8.73638 13.654 8.95274 13.8601 9.1824 14.0382C10.1975 14.8256 11.5322 15.1123 12.963 14.9809C13.4037 14.9404 13.8493 14.8606 14.2923 14.7456C13.8647 15.1775 13.3759 15.5487 12.84 15.8452C11.3254 15.9473 9.83765 15.6246 8.6601 14.7113C7.69716 13.9644 6.9777 12.8506 6.6123 11.3355C6.58982 11.6299 6.59789 11.9157 6.63277 12.1919C6.79371 13.4663 7.53466 14.6126 8.63934 15.5311C9.14059 15.9479 9.70953 16.3119 10.3204 16.6152C10.1326 16.6318 9.94238 16.6402 9.75022 16.6402C9.33211 16.6402 8.92338 16.6001 8.52768 16.5235ZM14.0026 15.6865C14.7906 15.5261 15.5791 15.2604 16.3333 14.906C16.6902 14.4468 16.9983 13.9478 17.2497 13.4167C16.6179 13.8349 15.9337 14.1844 15.2286 14.4487C14.8737 14.9111 14.4614 15.3272 14.0026 15.6865ZM16.4131 12.0578C17.0738 11.2216 17.6037 10.2221 17.9715 9.15174C17.9055 8.52121 17.7662 7.91247 17.5625 7.33414C17.3946 8.29661 17.0832 9.24331 16.6505 10.1C16.6516 10.1502 16.6521 10.2006 16.6521 10.2511C16.6521 10.8762 16.569 11.482 16.4131 12.0578ZM16.0387 7.4031C16.0333 7.32681 16.0268 7.25045 16.0191 7.17406C15.9036 6.01321 15.5343 4.8197 14.9688 3.70984C14.4778 3.32187 13.9404 2.99016 13.3661 2.72445C13.9973 3.5868 14.4961 4.56273 14.8143 5.56264C15.315 6.103 15.7303 6.72364 16.0387 7.4031ZM11.9554 3.71053C11.0453 3.00398 9.95412 2.44662 8.79442 2.07879C8.19477 2.16974 7.61696 2.32717 7.06873 2.54331C7.98196 2.68753 8.88784 2.96322 9.72354 3.35086C9.73243 3.35083 9.74132 3.35081 9.75022 3.35081C10.5214 3.35081 11.263 3.47725 11.9554 3.71053ZM6.02022 4.44428C5.13478 4.64951 4.25331 4.98553 3.42544 5.42894C3.09409 5.9053 2.81315 6.41936 2.59037 6.96337C3.14916 6.54878 3.75891 6.18931 4.39472 5.89806C4.85553 5.33208 5.40431 4.84054 6.02022 4.44428ZM2.88084 9.57705C2.57537 10.1799 2.32429 10.823 2.13467 11.4857C2.24529 12.0733 2.42012 12.6383 2.65159 13.173C2.72026 12.6495 2.83212 12.1269 2.98358 11.6172C2.89487 11.1757 2.84833 10.7188 2.84833 10.2511C2.84833 10.0237 2.85933 9.79882 2.88084 9.57705ZM4.72769 14.984C4.91214 15.5205 5.14302 16.049 5.41473 16.558C5.89138 16.892 6.40609 17.1753 6.95105 17.4003C6.6581 17.0039 6.39286 16.5827 6.16005 16.1455C5.63169 15.8232 5.15006 15.4318 4.72769 14.984ZM15.3191 18.4763C14.5414 18.5335 13.7409 18.489 12.9499 18.3545C13.484 18.1665 13.9947 17.9287 14.4764 17.6468C15.2804 17.6626 16.0672 17.5678 16.7931 17.3488C16.3387 17.7682 15.8453 18.1461 15.3191 18.4763ZM19.725 12.3922C19.2012 12.9898 18.5871 13.5291 17.9154 13.9948C18.1722 13.4882 18.3818 12.9535 18.5382 12.3967C19.1315 11.835 19.6329 11.2048 20 10.5281C19.9665 11.1672 19.873 11.7904 19.725 12.3922ZM18.5032 4.70674C18.5954 5.54153 18.569 6.40703 18.4378 7.26216C18.2495 6.68129 18.0029 6.1267 17.7048 5.6053C17.6944 4.77573 17.5656 3.96779 17.3038 3.23019L17.361 3.20991C17.7866 3.67085 18.1695 4.1719 18.5032 4.70674ZM12.0952 0.208052C12.7736 0.721439 13.3896 1.34779 13.923 2.04625C13.3788 1.77768 12.803 1.56333 12.2027 1.41025C11.6479 0.894883 11.0374 0.465802 10.3897 0.157445L10.4647 0C11.0213 0.0251118 11.566 0.0956704 12.0952 0.208052ZM4.48729 1.64693C5.29603 1.54295 6.13744 1.55457 6.97353 1.66816C6.41771 1.87051 5.88786 2.1269 5.39034 2.43097C4.62443 2.45217 3.88122 2.57762 3.1996 2.81943L3.15701 2.69942C3.56918 2.31254 4.01415 1.96017 4.48729 1.64693ZM0.167475 8.15044C0.652314 7.51237 1.23965 6.93064 1.89471 6.42167C1.66417 6.94389 1.48261 7.49256 1.35584 8.06187C0.849148 8.60571 0.428192 9.20349 0.126053 9.83784L0 9.77783C0.011841 9.22308 0.068842 8.67944 0.167475 8.15044ZM1.82311 15.758C1.6987 14.9597 1.6882 14.1259 1.77872 13.2941C1.9968 13.8373 2.26715 14.3539 2.58353 14.8376C2.62115 15.5388 2.74678 16.2184 2.96955 16.8461L2.77629 16.9146C2.43075 16.5538 2.11196 16.1673 1.82311 15.758ZM10.1185 12.8919C9.63248 12.8889 9.17483 12.7662 8.77355 12.5518C8.54876 12.3968 8.32094 12.2234 8.09033 12.0305L8.08346 12.0388C7.77587 11.7298 7.53758 11.3518 7.39386 10.9301C7.32627 10.6113 7.27476 10.2703 7.24108 9.90615C7.25159 9.55952 7.32301 9.22821 7.44501 8.92255C7.65412 8.579 7.90581 8.22845 8.20417 7.87179L8.1846 7.85543C8.513 7.55582 8.91061 7.33075 9.35066 7.207C9.60517 7.16103 9.87315 7.12481 10.1551 7.09914C10.6929 7.10247 11.196 7.2523 11.6263 7.51072C11.7894 7.62535 11.9539 7.74964 12.1199 7.88402C12.4268 8.17223 12.6709 8.52657 12.8293 8.92427C12.9203 9.29821 12.9883 9.70426 13.0302 10.1444C13.007 10.6015 12.8778 11.0307 12.6667 11.4079C12.5483 11.5864 12.4183 11.7667 12.2762 11.9486C11.9161 12.3426 11.4486 12.6368 10.92 12.7849C10.6664 12.8304 10.3994 12.8663 10.1185 12.8919Z" fill="url(#paint0_linear_596_118)"/>
<path d="M30.3 14H24.972V5.492H30.3V7.052H26.628V8.996H29.952V10.472H26.628V12.44H30.3V14ZM33.3621 14H31.7661V8.096H33.2901V8.816C33.6141 8.24 34.3701 7.928 35.0181 7.928C35.8221 7.928 36.4701 8.276 36.7701 8.912C37.2381 8.192 37.8621 7.928 38.6421 7.928C39.7341 7.928 40.7781 8.588 40.7781 10.172V14H39.2301V10.496C39.2301 9.86 38.9181 9.38 38.1861 9.38C37.5021 9.38 37.0941 9.908 37.0941 10.544V14H35.5101V10.496C35.5101 9.86 35.1861 9.38 34.4661 9.38C33.7701 9.38 33.3621 9.896 33.3621 10.544V14ZM43.559 10.376H46.199C46.175 9.788 45.791 9.212 44.879 9.212C44.051 9.212 43.595 9.836 43.559 10.376ZM46.355 11.912L47.687 12.308C47.387 13.328 46.451 14.18 44.999 14.18C43.379 14.18 41.951 13.016 41.951 11.024C41.951 9.14 43.343 7.916 44.855 7.916C46.679 7.916 47.771 9.08 47.771 10.976C47.771 11.204 47.747 11.444 47.747 11.468H43.523C43.559 12.248 44.219 12.812 45.011 12.812C45.755 12.812 46.163 12.44 46.355 11.912ZM52.6278 8.072V9.68C52.4478 9.644 52.2918 9.632 52.1478 9.632C51.3318 9.632 50.6238 10.028 50.6238 11.3V14H49.0278V8.096H50.5758V8.972C50.9358 8.192 51.7518 8.048 52.2558 8.048C52.3878 8.048 52.5078 8.06 52.6278 8.072ZM53.2718 14.324L54.7118 13.94C54.8198 14.588 55.3358 15.056 56.0918 15.056C57.0998 15.056 57.6638 14.552 57.6638 13.412V12.98C57.4238 13.364 56.8718 13.736 56.0198 13.736C54.4478 13.736 53.2718 12.524 53.2718 10.868C53.2718 9.308 54.3998 7.988 56.0198 7.988C56.9558 7.988 57.4958 8.396 57.6998 8.792V8.096H59.2358V13.364C59.2358 14.984 58.3598 16.46 56.1398 16.46C54.5198 16.46 53.4398 15.452 53.2718 14.324ZM56.2958 12.368C57.1118 12.368 57.6878 11.78 57.6878 10.868C57.6878 9.956 57.0638 9.38 56.2958 9.38C55.5038 9.38 54.8798 9.956 54.8798 10.868C54.8798 11.792 55.4678 12.368 56.2958 12.368ZM62.016 10.376H64.656C64.632 9.788 64.248 9.212 63.336 9.212C62.508 9.212 62.052 9.836 62.016 10.376ZM64.812 11.912L66.144 12.308C65.844 13.328 64.908 14.18 63.456 14.18C61.836 14.18 60.408 13.016 60.408 11.024C60.408 9.14 61.8 7.916 63.312 7.916C65.136 7.916 66.228 9.08 66.228 10.976C66.228 11.204 66.204 11.444 66.204 11.468H61.98C62.016 12.248 62.676 12.812 63.468 12.812C64.212 12.812 64.62 12.44 64.812 11.912ZM69.0808 10.604V14H67.4848V8.096H69.0328V8.828C69.3928 8.216 70.1008 7.94 70.7368 7.94C72.2008 7.94 72.8728 8.984 72.8728 10.28V14H71.2768V10.556C71.2768 9.896 70.9528 9.38 70.1848 9.38C69.4888 9.38 69.0808 9.92 69.0808 10.604ZM77.1446 9.392C76.3286 9.392 75.6446 9.98 75.6446 11.048C75.6446 12.116 76.3406 12.716 77.1566 12.716C77.9726 12.716 78.3806 12.176 78.5126 11.72L79.9166 12.188C79.6526 13.172 78.7286 14.18 77.1566 14.18C75.4166 14.18 74.0486 12.86 74.0486 11.048C74.0486 9.224 75.3926 7.916 77.1086 7.916C78.7166 7.916 79.6286 8.912 79.8806 9.908L78.4526 10.388C78.3086 9.896 77.9366 9.392 77.1446 9.392ZM82.1957 10.376H84.8357C84.8117 9.788 84.4277 9.212 83.5157 9.212C82.6877 9.212 82.2317 9.836 82.1957 10.376ZM84.9917 11.912L86.3237 12.308C86.0237 13.328 85.0877 14.18 83.6357 14.18C82.0157 14.18 80.5877 13.016 80.5877 11.024C80.5877 9.14 81.9797 7.916 83.4917 7.916C85.3157 7.916 86.4077 9.08 86.4077 10.976C86.4077 11.204 86.3837 11.444 86.3837 11.468H82.1597C82.1957 12.248 82.8557 12.812 83.6477 12.812C84.3917 12.812 84.7997 12.44 84.9917 11.912Z" fill="#565E6D"/>
<defs>
<linearGradient id="paint0_linear_596_118" x1="1.66667" y1="2.61905" x2="18.8095" y2="15.4762" gradientUnits="userSpaceOnUse">
<stop stop-color="#462FD8"/>
<stop offset="1" stop-color="#FF514F"/>
</linearGradient>
</defs>
</svg>
