<svg width="50" height="50" viewBox="0 0 50 50" fill="none" xmlns="http://www.w3.org/2000/svg">
<path d="M45.1249 21.3538L26.3749 4.68714C25.9947 4.35314 25.5059 4.16895 24.9999 4.16895C24.4938 4.16895 24.005 4.35314 23.6249 4.68714L4.87486 21.3538C4.55619 21.6357 4.33146 22.0084 4.2309 22.4218C4.13034 22.8352 4.15877 23.2695 4.31236 23.6663C4.46344 24.0578 4.72925 24.3946 5.07496 24.6325C5.42068 24.8704 5.83019 24.9984 6.24986 24.9996H8.33319V43.7496C8.33319 44.3022 8.55269 44.8321 8.94339 45.2228C9.33409 45.6135 9.86399 45.833 10.4165 45.833H39.5832C40.1357 45.833 40.6656 45.6135 41.0563 45.2228C41.447 44.8321 41.6665 44.3022 41.6665 43.7496V24.9996H43.7499C44.1695 24.9984 44.579 24.8704 44.9248 24.6325C45.2705 24.3946 45.5363 24.0578 45.6874 23.6663C45.841 23.2695 45.8694 22.8352 45.7688 22.4218C45.6683 22.0084 45.4435 21.6357 45.1249 21.3538ZM27.0832 41.6663H22.9165V35.4163C22.9165 34.8638 23.136 34.3339 23.5267 33.9432C23.9174 33.5525 24.4473 33.333 24.9999 33.333C25.5524 33.333 26.0823 33.5525 26.473 33.9432C26.8637 34.3339 27.0832 34.8638 27.0832 35.4163V41.6663ZM37.4999 41.6663H31.2499V35.4163C31.2499 33.7587 30.5914 32.169 29.4193 30.9969C28.2472 29.8248 26.6575 29.1663 24.9999 29.1663C23.3423 29.1663 21.7525 29.8248 20.5804 30.9969C19.4083 32.169 18.7499 33.7587 18.7499 35.4163V41.6663H12.4999V24.9996H37.4999V41.6663ZM11.729 20.833L24.9999 9.04131L38.2707 20.833H11.729Z" fill="#7B42D9"/>
</svg>
