<svg width="100" height="100" viewBox="0 0 100 100" fill="none" xmlns="http://www.w3.org/2000/svg">
<g clip-path="url(#clip0_540_46)">
<path d="M48.5999 85.4L15.6999 52.8C14.2999 51.5 13.1999 50 12.1999 48.4C6.79987 39.5 8.19987 28.1 15.6999 20.7C19.9999 16.4 25.7999 14 31.8999 14C41.4999 14 47.4999 19.6 49.9999 22.8C52.4999 19.6 58.4999 14 68.0999 14C74.1999 14 79.9999 16.4 84.2999 20.7C91.6999 28.1 93.1999 39.5 87.7999 48.4C86.7999 50 85.6999 51.5 84.2999 52.8L51.3999 85.4C50.5999 86.2 49.3999 86.2 48.5999 85.4ZM31.8999 18C26.7999 18 22.0999 20 18.4999 23.5C12.3999 29.6 11.1999 39 15.5999 46.3C16.3999 47.6 17.3999 48.9 18.4999 50L49.9999 81.2L81.4999 50C82.5999 48.9 83.5999 47.7 84.3999 46.3C88.7999 38.9 87.6999 29.5 81.4999 23.5C77.8999 20 73.0999 18 68.0999 18C60.8999 18 54.8999 21.9 51.6999 27.3C50.8999 28.6 48.9999 28.6 48.1999 27.3C45.0999 21.9 39.0999 18 31.8999 18Z" fill="#4A515E"/>
<path d="M944 -370V1314H-840V-370H944ZM952 -378H-848V1322H952V-378Z" fill="#0000FF"/>
</g>
<defs>
<clipPath id="clip0_540_46">
<rect width="100" height="100" fill="white"/>
</clipPath>
</defs>
</svg>
