<svg width="100" height="100" viewBox="0 0 100 100" fill="none" xmlns="http://www.w3.org/2000/svg">
<path d="M50.4688 8.33784C32.0593 8.07895 16.9256 22.7932 16.667 41.2027C16.667 63.9037 47.3514 90.0715 48.6576 91.1742C49.0324 91.4929 49.5085 91.6673 50.0003 91.6666C50.4922 91.6673 50.9682 91.4929 51.3431 91.1742C52.6493 90.0715 83.3337 63.9037 83.3337 41.2027C83.0801 23.1579 68.5136 8.59139 50.4688 8.33784ZM50.0003 86.8082C44.1003 81.5103 20.8337 59.4441 20.8337 41.2027C20.9809 25.2306 34.0279 12.3911 50.0003 12.4999C65.9727 12.3911 79.02 25.2306 79.167 41.2027C79.167 59.4278 55.8961 81.5063 50.0003 86.8082ZM50.0003 29.1666C43.0967 29.1666 37.5003 34.763 37.5003 41.6666C37.5003 48.5702 43.0967 54.1666 50.0003 54.1666C56.9009 54.159 62.4927 48.5671 62.5003 41.6666C62.5003 34.763 56.9039 29.1666 50.0003 29.1666ZM50.0003 49.9999C45.398 49.9999 41.667 46.2689 41.667 41.6666C41.667 37.0643 45.398 33.3333 50.0003 33.3333C54.6003 33.3391 58.3278 37.0666 58.3337 41.6666C58.3337 46.2689 54.6026 49.9999 50.0003 49.9999Z" fill="#4A515E"/>
</svg>
