<svg width="32" height="32" viewBox="0 0 32 32" fill="none" xmlns="http://www.w3.org/2000/svg">
<path d="M29.24 18.76C28.6076 18.1291 27.8423 17.6474 27 17.35V7C27 6.20435 26.6839 5.44129 26.1213 4.87868C25.5587 4.31607 24.7956 4 24 4H4C3.20435 4 2.44129 4.31607 1.87868 4.87868C1.31607 5.44129 1 6.20435 1 7V21C1.00197 21.4245 1.09399 21.8437 1.27 22.23C1.5066 22.7563 1.89 23.2033 2.37421 23.5172C2.85843 23.8312 3.42292 23.9988 4 24H19.09C19.2454 24.9326 19.6191 25.8153 20.1804 26.5761C20.7418 27.3369 21.475 27.9542 22.3203 28.3778C23.1656 28.8014 24.099 29.0192 25.0444 29.0135C25.9899 29.0078 26.9206 28.7788 27.7608 28.3451C28.6009 27.9113 29.3266 27.2852 29.8788 26.5177C30.431 25.7503 30.794 24.8632 30.9382 23.9288C31.0824 22.9943 31.0037 22.0391 30.7086 21.1408C30.4135 20.2426 29.9103 19.4268 29.24 18.76ZM21.56 25C21.1373 24.2401 20.9738 23.3631 21.0941 22.5018C21.2145 21.6406 21.6123 20.8421 22.2272 20.2272C22.8421 19.6123 23.6406 19.2145 24.5018 19.0941C25.3631 18.9738 26.2401 19.1373 27 19.56L21.56 25ZM18.48 22L16 18.89L19 16.32L21.3 18.32C21.1109 18.4659 20.9306 18.6229 20.76 18.79C19.8863 19.6627 19.3031 20.7836 19.09 22H18.48ZM4 6H24C24.2652 6 24.5196 6.10536 24.7071 6.29289C24.8946 6.48043 25 6.73478 25 7V17C24.3859 17.0002 23.7754 17.0946 23.19 17.28L19.65 14.28C19.4689 14.1251 19.2384 14.0399 19 14.0399C18.7616 14.0399 18.5311 14.1251 18.35 14.28L14.74 17.37L10.74 12.37C10.6502 12.2591 10.5377 12.1687 10.4101 12.1049C10.2824 12.0411 10.1426 12.0053 10 12C9.85465 11.9973 9.71047 12.0263 9.57748 12.085C9.4445 12.1438 9.32592 12.2308 9.23 12.34L3 19.39V7C3 6.73478 3.10536 6.48043 3.29289 6.29289C3.48043 6.10536 3.73478 6 4 6ZM3.5 21.84L10 14.55L16 22H4C3.82206 21.9921 3.64944 21.9369 3.5 21.84ZM27.83 25.84C27.1938 26.445 26.3802 26.8299 25.5089 26.9379C24.6376 27.0459 23.7547 26.8714 22.99 26.44L28.44 21C28.8888 21.7621 29.0724 22.6515 28.962 23.529C28.8517 24.4066 28.4536 25.2228 27.83 25.85V25.84Z" fill="#565E6D"/>
<path d="M16 12C17.1046 12 18 11.1046 18 10C18 8.89543 17.1046 8 16 8C14.8954 8 14 8.89543 14 10C14 11.1046 14.8954 12 16 12Z" fill="#565E6D"/>
</svg>
