<svg width="100" height="100" viewBox="0 0 100 100" fill="none" xmlns="http://www.w3.org/2000/svg">
<path fill-rule="evenodd" clip-rule="evenodd" d="M77.4445 6.60899C79.007 5.04843 81.1251 4.17188 83.3334 4.17188C85.5417 4.17188 87.6598 5.04843 89.2223 6.60899L93.3899 10.7766C94.9504 12.3391 95.8279 14.458 95.8279 16.6664C95.8279 18.8747 94.9513 20.9928 93.3908 22.5553L93.3814 22.5646L49.3814 66.0646C49.1836 66.2601 48.9487 66.4141 48.6905 66.5174L27.8571 74.8507C27.0833 75.1602 26.1996 74.9788 25.6103 74.3895C25.021 73.8002 24.8396 72.9164 25.1491 72.1426L33.4824 51.3093C33.5857 51.0511 33.7397 50.8161 33.9352 50.6183L77.4352 6.61835L77.4445 6.60899ZM80.3931 9.55293C80.3917 9.55432 80.3903 9.55571 80.3889 9.5571L77.7118 12.2651L87.7346 22.288L90.4427 19.6108C90.4441 19.6094 90.4455 19.608 90.4469 19.6066C91.2245 18.8257 91.6612 17.7685 91.6612 16.6664C91.6612 15.5626 91.2233 14.504 90.4436 13.7228M86.2778 9.5571L90.4436 13.7228ZM84.7715 25.2175L74.7823 15.2282L37.1945 53.248L30.8231 69.1767L46.7517 62.8052L84.7715 25.2175Z" fill="#4A515E"/>
<path fill-rule="evenodd" clip-rule="evenodd" d="M82.5145 17.4847C83.3281 18.2983 83.3281 19.6174 82.5145 20.431L47.2667 55.6788L48.848 56.4695C49.2512 56.671 49.5781 56.998 49.7797 57.4011L51.8631 61.5678C52.3776 62.5969 51.9605 63.8483 50.9314 64.3629C49.9022 64.8775 48.6508 64.4603 48.1363 63.4312L46.3635 59.8857L42.818 58.1129C42.4148 57.9113 42.0879 57.5844 41.8863 57.1812L40.3788 54.1662H35.4163C34.2657 54.1662 33.333 53.2334 33.333 52.0828C33.333 50.9322 34.2657 49.9995 35.4163 49.9995H41.6663C42.4554 49.9995 43.1768 50.4454 43.5297 51.1512L44.3204 52.7325L79.5682 17.4847C80.3818 16.6711 81.7009 16.6711 82.5145 17.4847ZM27.6932 67.2764C28.5068 66.4628 29.8259 66.4628 30.6395 67.2764L32.7228 69.3597C33.5364 70.1733 33.5364 71.4924 32.7228 72.306C31.9092 73.1196 30.5901 73.1196 29.7765 72.306L27.6932 70.2226C26.8796 69.4091 26.8796 68.09 27.6932 67.2764Z" fill="#4A515E"/>
<path fill-rule="evenodd" clip-rule="evenodd" d="M16.666 16.6667C16.666 14.3655 18.5315 12.5 20.8327 12.5C23.1339 12.5 24.9993 14.3655 24.9993 16.6667C24.9993 18.9679 23.1339 20.8333 20.8327 20.8333C18.5315 20.8333 16.666 18.9679 16.666 16.6667Z" fill="#4A515E"/>
<path fill-rule="evenodd" clip-rule="evenodd" d="M20.8333 4.1665C21.9839 4.1665 22.9167 5.09924 22.9167 6.24984V16.6665C22.9167 17.8171 21.9839 18.7498 20.8333 18.7498C19.6827 18.7498 18.75 17.8171 18.75 16.6665V6.24984C18.75 5.09924 19.6827 4.1665 20.8333 4.1665Z" fill="#4A515E"/>
<path fill-rule="evenodd" clip-rule="evenodd" d="M33.333 16.6667C33.333 14.3655 35.1985 12.5 37.4997 12.5C39.8009 12.5 41.6663 14.3655 41.6663 16.6667C41.6663 18.9679 39.8009 20.8333 37.4997 20.8333C35.1985 20.8333 33.333 18.9679 33.333 16.6667Z" fill="#4A515E"/>
<path fill-rule="evenodd" clip-rule="evenodd" d="M37.4993 4.1665C38.6499 4.1665 39.5827 5.09924 39.5827 6.24984V16.6665C39.5827 17.8171 38.6499 18.7498 37.4993 18.7498C36.3488 18.7498 35.416 17.8171 35.416 16.6665V6.24984C35.416 5.09924 36.3488 4.1665 37.4993 4.1665Z" fill="#4A515E"/>
<path fill-rule="evenodd" clip-rule="evenodd" d="M50 16.6667C50 14.3655 51.8655 12.5 54.1667 12.5C56.4679 12.5 58.3333 14.3655 58.3333 16.6667C58.3333 18.9679 56.4679 20.8333 54.1667 20.8333C51.8655 20.8333 50 18.9679 50 16.6667Z" fill="#4A515E"/>
<path fill-rule="evenodd" clip-rule="evenodd" d="M54.1663 4.1665C55.3169 4.1665 56.2497 5.09924 56.2497 6.24984V16.6665C56.2497 17.8171 55.3169 18.7498 54.1663 18.7498C53.0157 18.7498 52.083 17.8171 52.083 16.6665V6.24984C52.083 5.09924 53.0157 4.1665 54.1663 4.1665Z" fill="#4A515E"/>
<path fill-rule="evenodd" clip-rule="evenodd" d="M11.6067 4.17143C11.6543 4.16815 11.702 4.1665 11.7498 4.1665H63.2498C63.2976 4.1665 63.3453 4.16815 63.3929 4.17143C65.4958 4.31623 67.4565 5.28511 68.8491 6.8675C70.2271 8.43343 70.9384 10.4749 70.8331 12.5564V18.3748C70.8331 19.5254 69.9004 20.4582 68.7498 20.4582C67.5992 20.4582 66.6665 19.5254 66.6665 18.3748V12.4998C66.6665 12.459 66.6677 12.4183 66.6701 12.3775C66.7293 11.3693 66.3883 10.3783 65.7211 9.62012C65.0679 8.8779 64.1539 8.41737 63.1704 8.33317H11.8292C10.8457 8.41737 9.93168 8.8779 9.27853 9.62012C8.61129 10.3783 8.27025 11.3693 8.32954 12.3775C8.33193 12.4183 8.33313 12.459 8.33313 12.4998V87.4998C8.33313 87.5406 8.33193 87.5814 8.32954 87.6221C8.27025 88.6304 8.61129 89.6213 9.27853 90.3796C9.93169 91.1218 10.8458 91.5823 11.8292 91.6665H63.1704C64.1538 91.5823 65.0679 91.1218 65.7211 90.3796C66.3883 89.6213 66.7293 88.6304 66.6701 87.6221C66.6686 87.5968 66.6675 87.5715 66.667 87.5462C66.6666 87.5307 66.6665 87.5153 66.6665 87.4998V43.9998C66.6665 42.8492 67.5992 41.9165 68.7498 41.9165C69.9004 41.9165 70.8331 42.8492 70.8331 43.9998V87.4432C70.9384 89.5248 70.2271 91.5663 68.8491 93.1322C67.4565 94.7146 65.4958 95.6835 63.3929 95.8283C63.3453 95.8315 63.2976 95.8332 63.2498 95.8332H11.7498C11.702 95.8332 11.6543 95.8315 11.6067 95.8283C9.50381 95.6835 7.54306 94.7146 6.15055 93.1322C4.77254 91.5663 4.06122 89.5248 4.16646 87.4433V12.5564C4.06122 10.4749 4.77254 8.43342 6.15055 6.8675C7.54306 5.28511 9.50381 4.31623 11.6067 4.17143Z" fill="#4A515E"/>
</svg>
