<svg width="48" height="48" viewBox="0 0 48 48" fill="none" xmlns="http://www.w3.org/2000/svg">
<g clip-path="url(#clip0_664_5)">
<path d="M21.9 40.5L15.5 29.5H19.8L13.7 18.9H18.1L13.2 10.3H16.8L11.2 0.5L5.6 10.3H9.1L4.2 18.9H8.7L2.6 29.5H6.8L0.5 40.5H9.5V47.5H12.8V40.5H21.9Z" fill="#7B42D9"/>
<path d="M34.6998 40.5L28.3998 29.5H32.5998L26.4998 18.9H30.8998L25.9998 10.3H29.5998L23.9998 0.5L18.3998 10.3H21.9998L17.0998 18.9H21.4998L15.3998 29.5H19.5998L13.2998 40.5H22.3998V47.5H25.5998V40.5H34.6998Z" fill="#7B42D9"/>
<path d="M47.4996 40.5L41.1996 29.5H45.3996L39.2996 18.9H43.7996L38.8996 10.3H42.3996L36.7996 0.5L31.1996 10.3H34.7996L29.8996 18.9H34.2996L28.1996 29.5H32.4996L26.0996 40.5H35.1996V47.5H38.4996V40.5H47.4996Z" fill="#7B42D9"/>
<path d="M47.5 45.2998H0.5V47.4998H47.5V45.2998Z" fill="#010101"/>
</g>
<defs>
<clipPath id="clip0_664_5">
<rect width="48" height="48" fill="white"/>
</clipPath>
</defs>
</svg>
