<svg width="100" height="100" viewBox="0 0 100 100" fill="none" xmlns="http://www.w3.org/2000/svg">
<path fill-rule="evenodd" clip-rule="evenodd" d="M35.9436 6.25C26.4998 6.25 18.8186 13.9688 18.8186 23.4375C18.8186 32.9063 26.4998 40.625 35.9404 40.625C45.3842 40.625 53.0654 32.9063 53.0654 23.4375C53.0654 13.9688 45.3873 6.25 35.9436 6.25ZM35.9436 9.375C43.6936 9.375 49.9436 15.65 49.9436 23.4375C49.9436 31.225 43.6936 37.5 35.9436 37.5C34.1001 37.4988 32.2751 37.1338 30.573 36.4258C28.8709 35.7179 27.3253 34.6811 26.0247 33.3747C24.7241 32.0683 23.6941 30.518 22.9938 28.8128C22.2935 27.1076 21.9366 25.2809 21.9436 23.4375C21.9436 15.65 28.1936 9.375 35.9436 9.375ZM76.9529 24.1563C76.5385 24.1563 76.1411 24.3209 75.8481 24.6139C75.555 24.9069 75.3904 25.3043 75.3904 25.7188V27.3188C74.9409 27.4725 74.5006 27.6519 74.0717 27.8563L72.9436 26.7313C72.6505 26.4383 72.2532 26.2738 71.8389 26.2738C71.4246 26.2738 71.0272 26.4383 70.7342 26.7313L67.4217 30.0469C67.1288 30.3399 66.9642 30.7372 66.9642 31.1516C66.9642 31.5659 67.1288 31.9632 67.4217 32.2563L68.5467 33.3875C68.3386 33.8149 68.156 34.2542 67.9998 34.7031H66.4061C65.9917 34.7031 65.5942 34.8677 65.3012 35.1608C65.0082 35.4538 64.8436 35.8512 64.8436 36.2656V40.9531C64.8436 41.3675 65.0082 41.765 65.3012 42.058C65.5942 42.351 65.9917 42.5156 66.4061 42.5156H68.0061C68.1623 42.9688 68.3342 43.4063 68.5436 43.8344L67.4186 44.9656C67.1256 45.2586 66.9611 45.656 66.9611 46.0703C66.9611 46.4846 67.1256 46.882 67.4186 47.175L70.7311 50.4875C70.8762 50.633 71.0486 50.7485 71.2384 50.8272C71.4283 50.906 71.6318 50.9465 71.8373 50.9465C72.0428 50.9465 72.2463 50.906 72.4362 50.8272C72.626 50.7485 72.7984 50.633 72.9436 50.4875L74.0717 49.3594C74.5029 49.5688 74.9404 49.7469 75.3904 49.9031V51.5C75.3904 51.9144 75.555 52.3118 75.8481 52.6049C76.1411 52.8979 76.5385 53.0625 76.9529 53.0625H81.6404C82.0548 53.0625 82.4523 52.8979 82.7453 52.6049C83.0383 52.3118 83.2029 51.9144 83.2029 51.5V49.9031C83.6529 49.7469 84.0904 49.5656 84.5217 49.3594L85.6498 50.4875C85.9428 50.7804 86.3402 50.945 86.7545 50.945C87.1688 50.945 87.5662 50.7804 87.8592 50.4875L91.1717 47.175C91.4646 46.882 91.6292 46.4846 91.6292 46.0703C91.6292 45.656 91.4646 45.2586 91.1717 44.9656L90.0467 43.8344C90.2548 43.406 90.4375 42.9656 90.5936 42.5156H92.1873C92.6017 42.5156 92.9991 42.351 93.2922 42.058C93.5852 41.765 93.7498 41.3675 93.7498 40.9531V36.2656C93.7498 35.8512 93.5852 35.4538 93.2922 35.1608C92.9991 34.8677 92.6017 34.7031 92.1873 34.7031H90.5873C90.4321 34.2543 90.2506 33.8149 90.0436 33.3875L91.1748 32.2563C91.4677 31.9632 91.6323 31.5659 91.6323 31.1516C91.6323 30.7372 91.4677 30.3399 91.1748 30.0469L87.8623 26.7344C87.7172 26.5889 87.5447 26.4734 87.3549 26.3946C87.1651 26.3159 86.9616 26.2753 86.7561 26.2753C86.5505 26.2753 86.347 26.3159 86.1572 26.3946C85.9674 26.4734 85.795 26.5889 85.6498 26.7344L84.5217 27.8625C84.0935 27.6528 83.6532 27.4692 83.2029 27.3125V25.7188C83.2029 25.3043 83.0383 24.9069 82.7453 24.6139C82.4523 24.3209 82.0548 24.1563 81.6404 24.1563H76.9529ZM78.5154 27.2813H80.0779V28.3375C80.0769 28.6924 80.1967 29.0371 80.4176 29.3148C80.6386 29.5926 80.9475 29.7868 81.2936 29.8656C82.2779 30.0906 83.2217 30.475 84.0748 31.0125C84.3747 31.2011 84.7298 31.2822 85.0819 31.2424C85.4339 31.2027 85.762 31.0445 86.0123 30.7938L86.7561 30.0469L87.8592 31.1531L87.1154 31.8906C86.8647 32.1409 86.7065 32.469 86.6668 32.8211C86.627 33.1731 86.7081 33.5282 86.8967 33.8281C87.4279 34.6844 87.8217 35.6219 88.0436 36.6094C88.1214 36.9544 88.314 37.2629 88.5899 37.4843C88.8657 37.7057 89.2086 37.8269 89.5623 37.8281H90.6248V39.3906H89.5686C89.2138 39.3904 88.8695 39.511 88.5923 39.7325C88.3151 39.954 88.1216 40.2633 88.0436 40.6094C87.8201 41.5943 87.4324 42.5345 86.8967 43.3906C86.7089 43.6902 86.6283 44.0447 86.668 44.396C86.7077 44.7474 86.8655 45.0749 87.1154 45.325L87.8592 46.0688L86.7561 47.175L86.0154 46.4281C85.7653 46.1782 85.4378 46.0204 85.0865 45.9807C84.7351 45.941 84.3807 46.0216 84.0811 46.2094C83.2247 46.7432 82.2844 47.1289 81.2998 47.35C80.9526 47.4276 80.6423 47.6213 80.4201 47.8991C80.1979 48.177 80.0772 48.5224 80.0779 48.8781V49.9406H78.5154V48.8844C78.5165 48.5295 78.3967 48.1848 78.1757 47.907C77.9548 47.6293 77.6459 47.435 77.2998 47.3563C76.315 47.1327 75.3748 46.745 74.5186 46.2094C74.2193 46.02 73.8646 45.9379 73.5126 45.9765C73.1606 46.0151 72.8321 46.1721 72.5811 46.4219L71.8373 47.1688L70.7342 46.0625L71.4779 45.3188C71.7264 45.0691 71.8832 44.7428 71.9229 44.3928C71.9626 44.0428 71.8829 43.6896 71.6967 43.3906C71.1608 42.5346 70.7731 41.5943 70.5498 40.6094C70.4726 40.2637 70.2803 39.9546 70.0043 39.7326C69.7284 39.5106 69.3852 39.3889 69.0311 39.3875H67.9686V37.825H69.0248C69.3796 37.8252 69.7239 37.7046 70.0011 37.4831C70.2782 37.2616 70.4717 36.9524 70.5498 36.6063C70.7748 35.625 71.1623 34.6813 71.6967 33.825C71.8845 33.5254 71.9651 33.1709 71.9254 32.8196C71.8856 32.4682 71.7279 32.1407 71.4779 31.8906L70.7342 31.1469L71.8373 30.0406L72.5779 30.7813C72.8273 31.0322 73.1544 31.1911 73.5058 31.232C73.8572 31.2728 74.212 31.1933 74.5123 31.0063C75.3686 30.4719 76.3092 30.0813 77.2936 29.8594C77.6397 29.7821 77.9493 29.5893 78.1713 29.3127C78.3934 29.0361 78.5147 28.6922 78.5154 28.3375V27.2813ZM79.2967 33.4656C76.4748 33.4656 74.1529 35.7875 74.1529 38.6094C74.1529 41.4313 76.4748 43.7563 79.2967 43.7563C82.1186 43.7563 84.4404 41.4313 84.4404 38.6094C84.4404 35.7875 82.1186 33.4656 79.2967 33.4656ZM79.2967 36.5906C79.8329 36.5906 80.3472 36.8036 80.7264 37.1828C81.1055 37.562 81.3186 38.0763 81.3186 38.6125C81.3186 39.1487 81.1055 39.663 80.7264 40.0422C80.3472 40.4214 79.8329 40.6344 79.2967 40.6344C78.7604 40.6344 78.2462 40.4214 77.867 40.0422C77.4878 39.663 77.2748 39.1487 77.2748 38.6125C77.2748 38.0763 77.4878 37.562 77.867 37.1828C78.2462 36.8036 78.7604 36.5906 79.2967 36.5906ZM26.6279 43.75C13.6686 43.75 3.19043 54.275 3.19043 67.2813V81.3906C3.19043 81.805 3.35505 82.2025 3.64808 82.4955C3.9411 82.7885 4.33853 82.9531 4.75293 82.9531H16.7967C17.095 83.0446 17.4139 83.0446 17.7123 82.9531H44.1279C44.3154 82.3875 44.5904 81.85 44.9842 81.3719C43.7964 81.252 42.6932 80.7031 41.8811 79.8281H18.8186V67.2594C18.8215 67.0502 18.7824 66.8426 18.7037 66.6489C18.6249 66.4551 18.508 66.2791 18.36 66.1314C18.2119 65.9836 18.0357 65.8671 17.8418 65.7887C17.6479 65.7103 17.4402 65.6716 17.2311 65.675C17.0259 65.6779 16.8232 65.7211 16.6348 65.8023C16.4463 65.8834 16.2756 66.0009 16.1326 66.1481C15.9895 66.2952 15.8768 66.4691 15.801 66.6597C15.7251 66.8504 15.6875 67.0542 15.6904 67.2594V79.8281H6.31543V67.2781C6.31543 55.9469 15.3529 46.875 26.6279 46.875H45.3779C50.0811 46.875 54.3811 48.4688 57.8123 51.1281C58.5936 50.4344 59.5936 50 60.7186 50H61.2623C56.9503 45.9799 51.2732 43.7462 45.3779 43.75H26.6279ZM60.7186 53.1313C60.3042 53.1313 59.9067 53.2959 59.6137 53.5889C59.3207 53.8819 59.1561 54.2794 59.1561 54.6938V57.4844C58.1873 57.7844 57.2529 58.1688 56.3529 58.6375L54.3873 56.6688C54.0943 56.3758 53.6969 56.2113 53.2826 56.2113C52.8683 56.2113 52.4709 56.3758 52.1779 56.6688L47.3561 61.4938C47.0631 61.7868 46.8986 62.1841 46.8986 62.5984C46.8986 63.0128 47.0631 63.4101 47.3561 63.7031L49.3248 65.6688C48.8529 66.5656 48.4654 67.5 48.1623 68.4688H45.3811C44.9667 68.4688 44.5692 68.6334 44.2762 68.9264C43.9832 69.2194 43.8186 69.6169 43.8186 70.0313V76.85C43.8186 77.2644 43.9832 77.6618 44.2762 77.9549C44.5692 78.2479 44.9667 78.4125 45.3811 78.4125H48.1686C48.4686 79.3813 48.8467 80.3188 49.3154 81.2188L47.3561 83.1875C47.0641 83.4804 46.9001 83.8771 46.9001 84.2906C46.9001 84.7042 47.0641 85.1009 47.3561 85.3938L52.1779 90.2156C52.4709 90.5086 52.8683 90.6731 53.2826 90.6731C53.6969 90.6731 54.0943 90.5086 54.3873 90.2156L56.3561 88.2469C57.2529 88.7156 58.1842 89.1031 59.1561 89.4031V92.1938C59.1561 92.6082 59.3207 93.0056 59.6137 93.2986C59.9067 93.5916 60.3042 93.7563 60.7186 93.7563H67.5342C67.9486 93.7563 68.346 93.5916 68.639 93.2986C68.9321 93.0056 69.0967 92.6082 69.0967 92.1938V89.3969C70.0654 89.0969 71.0029 88.7188 71.9061 88.25L73.8717 90.2188C74.1647 90.5117 74.562 90.6762 74.9764 90.6762C75.3907 90.6762 75.788 90.5117 76.0811 90.2188L80.9029 85.3938C81.1959 85.1007 81.3604 84.7034 81.3604 84.2891C81.3604 83.8747 81.1959 83.4774 80.9029 83.1844L78.9311 81.2156C79.3998 80.3125 79.7873 79.3813 80.0873 78.4125H82.8779C83.2923 78.4125 83.6898 78.2479 83.9828 77.9549C84.2758 77.6618 84.4404 77.2644 84.4404 76.85V70.0313C84.4404 69.6169 84.2758 69.2194 83.9828 68.9264C83.6898 68.6334 83.2923 68.4688 82.8779 68.4688H80.0842C79.7868 67.5028 79.403 66.5657 78.9373 65.6688L80.9029 63.7C81.1949 63.4071 81.3589 63.0104 81.3589 62.5969C81.3589 62.1833 81.1949 61.7866 80.9029 61.4938L76.0811 56.6719C75.788 56.379 75.3907 56.2144 74.9764 56.2144C74.562 56.2144 74.1647 56.379 73.8717 56.6719L71.8998 58.6406C71.0024 58.1694 70.0642 57.7803 69.0967 57.4781V54.6938C69.0967 54.2794 68.9321 53.8819 68.639 53.5889C68.346 53.2959 67.9486 53.1313 67.5342 53.1313H60.7186ZM62.2811 56.2563H65.9717V58.5031C65.9728 58.8564 66.0935 59.1989 66.3143 59.4748C66.5351 59.7506 66.8428 59.9435 67.1873 60.0219C68.6967 60.3656 70.1404 60.9625 71.4529 61.7844C71.7522 61.9738 72.1069 62.0559 72.4589 62.0173C72.8109 61.9787 73.1394 61.8216 73.3904 61.5719L74.9748 59.9844L77.5873 62.5969L76.0061 64.1719C75.7553 64.4222 75.5971 64.7503 75.5574 65.1023C75.5176 65.4544 75.5987 65.8095 75.7873 66.1094C76.6061 67.4219 77.1998 68.8594 77.5373 70.375C77.6155 70.7216 77.8095 71.0313 78.0873 71.2528C78.3651 71.4744 78.7101 71.5946 79.0654 71.5938H81.3154V75.2875H79.0717C78.7172 75.2863 78.3728 75.4057 78.0952 75.626C77.8175 75.8463 77.623 76.1545 77.5436 76.5C77.1998 78.0125 76.6061 79.4563 75.7811 80.7688C75.5933 81.0684 75.5126 81.4228 75.5524 81.7742C75.5921 82.1255 75.7498 82.453 75.9998 82.7031L77.5873 84.2906L74.9748 86.9031L73.3936 85.3219C73.1439 85.0734 72.8176 84.9166 72.4676 84.8769C72.1176 84.8372 71.7644 84.9169 71.4654 85.1031C70.1529 85.9219 68.7061 86.5125 67.1936 86.8531C66.8475 86.9312 66.5382 87.1247 66.3167 87.4019C66.0952 87.679 65.9746 88.0233 65.9748 88.3781V90.6313H62.2811V88.3844C62.2814 88.03 62.1613 87.686 61.9404 87.4089C61.7195 87.1318 61.411 86.9381 61.0654 86.8594C59.5544 86.5147 58.1124 85.9178 56.7998 85.0938C56.4999 84.9052 56.1448 84.8241 55.7928 84.8638C55.4407 84.9036 55.1126 85.0618 54.8623 85.3125L53.2842 86.9031L50.6717 84.2906L52.2467 82.7094C52.4961 82.4605 52.6541 82.1345 52.6949 81.7845C52.7358 81.4345 52.6571 81.0809 52.4717 80.7813C51.6521 79.4648 51.0605 78.0195 50.7217 76.5063C50.6435 76.1596 50.4495 75.85 50.1717 75.6284C49.8939 75.4069 49.5489 75.2866 49.1936 75.2875H46.9436V71.5938H49.1873C49.5411 71.5934 49.8844 71.4729 50.1608 71.2521C50.4373 71.0313 50.6306 70.7231 50.7092 70.3781C51.0529 68.8688 51.6467 67.425 52.4717 66.1125C52.6603 65.8136 52.7419 65.4595 52.7033 65.1082C52.6647 64.7569 52.5082 64.429 52.2592 64.1781L50.6717 62.5969L53.2842 59.9844L54.8592 61.5594C55.1085 61.8103 55.4356 61.9692 55.787 62.0101C56.1384 62.051 56.4933 61.9714 56.7936 61.7844C58.1061 60.9656 59.5467 60.375 61.0592 60.0344C61.4053 59.9563 61.7145 59.7628 61.936 59.4856C62.1575 59.2085 62.2781 58.8642 62.2779 58.5094L62.2811 56.2563ZM64.1279 65.6313C62.0595 65.6395 60.0781 66.4644 58.6149 67.9264C57.1518 69.3884 56.3253 71.3691 56.3154 73.4375C56.3245 75.5073 57.1503 77.4898 58.6133 78.954C60.0763 80.4182 62.0581 81.2456 64.1279 81.2563C66.1979 81.2472 68.1804 80.4202 69.6433 78.9556C71.1061 77.491 71.9307 75.5075 71.9373 73.4375C71.9291 71.3692 71.1036 69.3879 69.6407 67.9256C68.1779 66.4634 66.1963 65.6387 64.1279 65.6313ZM64.1279 68.7563C65.3711 68.7563 66.5634 69.2501 67.4425 70.1292C68.3216 71.0083 68.8154 72.2006 68.8154 73.4438C68.8154 74.687 68.3216 75.8792 67.4425 76.7583C66.5634 77.6374 65.3711 78.1313 64.1279 78.1313C61.5498 78.1313 59.4404 76.0188 59.4404 73.4375C59.4404 70.8563 61.5467 68.7563 64.1279 68.7563Z" fill="#4A515E"/>
</svg>
