<svg width="100" height="100" viewBox="0 0 100 100" fill="none" xmlns="http://www.w3.org/2000/svg">
<path d="M87.5 10.9375H81.25V9.375C81.25 8.1318 80.7561 6.93951 79.8771 6.06044C78.998 5.18136 77.8057 4.6875 76.5625 4.6875C75.3193 4.6875 74.127 5.18136 73.2479 6.06044C72.3689 6.93951 71.875 8.1318 71.875 9.375V10.9375H68.75V9.375C68.75 8.1318 68.2561 6.93951 67.3771 6.06044C66.498 5.18136 65.3057 4.6875 64.0625 4.6875C62.8193 4.6875 61.627 5.18136 60.7479 6.06044C59.8689 6.93951 59.375 8.1318 59.375 9.375V10.9375H40.625V9.375C40.625 8.1318 40.1311 6.93951 39.2521 6.06044C38.373 5.18136 37.1807 4.6875 35.9375 4.6875C34.6943 4.6875 33.502 5.18136 32.6229 6.06044C31.7439 6.93951 31.25 8.1318 31.25 9.375V10.9375H28.125V9.375C28.125 8.1318 27.6311 6.93951 26.7521 6.06044C25.873 5.18136 24.6807 4.6875 23.4375 4.6875C22.1943 4.6875 21.002 5.18136 20.1229 6.06044C19.2439 6.93951 18.75 8.1318 18.75 9.375V10.9375H12.5C10.428 10.9375 8.44086 11.7606 6.97573 13.2257C5.5106 14.6909 4.6875 16.678 4.6875 18.75V87.5C4.6875 89.572 5.5106 91.5591 6.97573 93.0243C8.44086 94.4894 10.428 95.3125 12.5 95.3125H87.5C89.572 95.3125 91.5591 94.4894 93.0243 93.0243C94.4894 91.5591 95.3125 89.572 95.3125 87.5V59.375C95.3125 58.9606 95.1479 58.5632 94.8549 58.2701C94.5618 57.9771 94.1644 57.8125 93.75 57.8125C93.3356 57.8125 92.9382 57.9771 92.6451 58.2701C92.3521 58.5632 92.1875 58.9606 92.1875 59.375V60.9375H73.4375V45.3125H92.1875C92.1875 45.7269 92.3521 46.1243 92.6451 46.4174C92.9382 46.7104 93.3356 46.875 93.75 46.875C94.1644 46.875 94.5618 46.7104 94.8549 46.4174C95.1479 46.1243 95.3125 45.7269 95.3125 45.3125V18.75C95.3125 16.678 94.4894 14.6909 93.0243 13.2257C91.5591 11.7606 89.572 10.9375 87.5 10.9375ZM75 9.375C75 8.9606 75.1646 8.56317 75.4576 8.27015C75.7507 7.97712 76.1481 7.8125 76.5625 7.8125C76.9769 7.8125 77.3743 7.97712 77.6674 8.27015C77.9604 8.56317 78.125 8.9606 78.125 9.375V15.625C78.125 16.0394 77.9604 16.4368 77.6674 16.7299C77.3743 17.0229 76.9769 17.1875 76.5625 17.1875C76.1481 17.1875 75.7507 17.0229 75.4576 16.7299C75.1646 16.4368 75 16.0394 75 15.625V9.375ZM62.5 9.375C62.5 8.9606 62.6646 8.56317 62.9576 8.27015C63.2507 7.97712 63.6481 7.8125 64.0625 7.8125C64.4769 7.8125 64.8743 7.97712 65.1674 8.27015C65.4604 8.56317 65.625 8.9606 65.625 9.375V15.625C65.625 16.0394 65.4604 16.4368 65.1674 16.7299C64.8743 17.0229 64.4769 17.1875 64.0625 17.1875C63.6481 17.1875 63.2507 17.0229 62.9576 16.7299C62.6646 16.4368 62.5 16.0394 62.5 15.625V9.375ZM34.375 9.375C34.375 8.9606 34.5396 8.56317 34.8326 8.27015C35.1257 7.97712 35.5231 7.8125 35.9375 7.8125C36.3519 7.8125 36.7493 7.97712 37.0424 8.27015C37.3354 8.56317 37.5 8.9606 37.5 9.375V15.625C37.5 16.0394 37.3354 16.4368 37.0424 16.7299C36.7493 17.0229 36.3519 17.1875 35.9375 17.1875C35.5231 17.1875 35.1257 17.0229 34.8326 16.7299C34.5396 16.4368 34.375 16.0394 34.375 15.625V9.375ZM21.875 9.375C21.875 8.9606 22.0396 8.56317 22.3326 8.27015C22.6257 7.97712 23.0231 7.8125 23.4375 7.8125C23.8519 7.8125 24.2493 7.97712 24.5424 8.27015C24.8354 8.56317 25 8.9606 25 9.375V15.625C25 16.0394 24.8354 16.4368 24.5424 16.7299C24.2493 17.0229 23.8519 17.1875 23.4375 17.1875C23.0231 17.1875 22.6257 17.0229 22.3326 16.7299C22.0396 16.4368 21.875 16.0394 21.875 15.625V9.375ZM12.5 14.0625H18.75V15.625C18.75 16.8682 19.2439 18.0605 20.1229 18.9396C21.002 19.8186 22.1943 20.3125 23.4375 20.3125C24.6807 20.3125 25.873 19.8186 26.7521 18.9396C27.6311 18.0605 28.125 16.8682 28.125 15.625V14.0625H31.25V15.625C31.25 16.8682 31.7439 18.0605 32.6229 18.9396C33.502 19.8186 34.6943 20.3125 35.9375 20.3125C37.1807 20.3125 38.373 19.8186 39.2521 18.9396C40.1311 18.0605 40.625 16.8682 40.625 15.625V14.0625H59.375V15.625C59.375 16.8682 59.8689 18.0605 60.7479 18.9396C61.627 19.8186 62.8193 20.3125 64.0625 20.3125C65.3057 20.3125 66.498 19.8186 67.3771 18.9396C68.2561 18.0605 68.75 16.8682 68.75 15.625V14.0625H71.875V15.625C71.875 16.8682 72.3689 18.0605 73.2479 18.9396C74.127 19.8186 75.3193 20.3125 76.5625 20.3125C77.8057 20.3125 78.998 19.8186 79.8771 18.9396C80.7561 18.0605 81.25 16.8682 81.25 15.625V14.0625H87.5C88.7432 14.0625 89.9355 14.5564 90.8146 15.4354C91.6936 16.3145 92.1875 17.5068 92.1875 18.75V23.4375H7.8125V18.75C7.8125 17.5068 8.30636 16.3145 9.18544 15.4354C10.0645 14.5564 11.2568 14.0625 12.5 14.0625ZM70.3125 42.1875H51.5625V26.5625H70.3125V42.1875ZM51.5625 79.6875V64.0625H70.3125V79.6875H51.5625ZM48.4375 79.6875H29.6875V64.0625H48.4375V79.6875ZM7.8125 79.6875V64.0625H26.5625V79.6875H7.8125ZM26.5625 42.1875H7.8125V26.5625H26.5625V42.1875ZM26.5625 45.3125V60.9375H7.8125V45.3125H26.5625ZM29.6875 60.9375V45.3125H48.4375V60.9375H29.6875ZM29.6875 42.1875V26.5625H48.4375V42.1875H29.6875ZM87.5 92.1875H12.5C11.2568 92.1875 10.0645 91.6936 9.18544 90.8146C8.30636 89.9355 7.8125 88.7432 7.8125 87.5V82.8125H92.1875V87.5C92.1875 88.7432 91.6936 89.9355 90.8146 90.8146C89.9355 91.6936 88.7432 92.1875 87.5 92.1875ZM92.1875 64.0625V79.6875H73.4375V64.0625H92.1875ZM70.3125 60.9375H51.5625V45.3125H70.3125V60.9375ZM73.4375 42.1875V26.5625H92.1875V42.1875H73.4375Z" fill="#4A515E"/>
<path d="M92.1871 51.5625V53.125C92.1871 53.5394 92.3517 53.9369 92.6447 54.2299C92.9377 54.5229 93.3352 54.6875 93.7496 54.6875C94.164 54.6875 94.5614 54.5229 94.8544 54.2299C95.1474 53.9369 95.3121 53.5394 95.3121 53.125V51.5625C95.3121 51.1481 95.1474 50.7507 94.8544 50.4577C94.5614 50.1647 94.164 50 93.7496 50C93.3352 50 92.9377 50.1647 92.6447 50.4577C92.3517 50.7507 92.1871 51.1481 92.1871 51.5625ZM42.6402 48.8907L37.4996 54.0469L35.4839 52.0157C35.1897 51.7214 34.7907 51.5561 34.3746 51.5561C33.9585 51.5561 33.5594 51.7214 33.2652 52.0157C32.971 52.3099 32.8057 52.7089 32.8057 53.125C32.8057 53.5411 32.971 53.9402 33.2652 54.2344L36.3902 57.3594C36.5354 57.5059 36.7083 57.6221 36.8987 57.7014C37.0891 57.7808 37.2933 57.8216 37.4996 57.8216C37.7058 57.8216 37.9101 57.7808 38.1005 57.7014C38.2909 57.6221 38.4637 57.5059 38.6089 57.3594L44.8589 51.1094C45.1532 50.8152 45.3184 50.4161 45.3184 50C45.3184 49.5839 45.1532 49.1849 44.8589 48.8907C44.5647 48.5964 44.1657 48.4312 43.7496 48.4312C43.3335 48.4312 42.9344 48.5964 42.6402 48.8907ZM64.5152 67.6407L59.3746 72.7969L57.3589 70.7657C57.2132 70.62 57.0403 70.5044 56.8499 70.4256C56.6596 70.3467 56.4556 70.3061 56.2496 70.3061C56.0435 70.3061 55.8395 70.3467 55.6492 70.4256C55.4588 70.5044 55.2859 70.62 55.1402 70.7657C54.9945 70.9114 54.8789 71.0843 54.8001 71.2747C54.7212 71.465 54.6807 71.669 54.6807 71.875C54.6807 72.0811 54.7212 72.2851 54.8001 72.4754C54.8789 72.6658 54.9945 72.8387 55.1402 72.9844C60.2808 78.1094 58.2652 78.2969 66.7339 69.8594C67.0282 69.5652 67.1935 69.1661 67.1935 68.75C67.1935 68.3339 67.0282 67.9349 66.7339 67.6407C66.4397 67.3464 66.0407 67.1811 65.6246 67.1811C65.2085 67.1811 64.8094 67.3464 64.5152 67.6407ZM86.3902 30.1407L81.2496 35.2969L79.2339 33.2657C78.9397 32.9714 78.5407 32.8062 78.1246 32.8062C77.7085 32.8062 77.3094 32.9714 77.0152 33.2657C76.721 33.5599 76.5557 33.9589 76.5557 34.375C76.5557 34.7911 76.721 35.1902 77.0152 35.4844C82.1558 40.6094 80.1402 40.7969 88.6089 32.3594C88.9032 32.0652 89.0685 31.6661 89.0685 31.25C89.0685 30.8339 88.9032 30.4349 88.6089 30.1407C88.3147 29.8464 87.9157 29.6812 87.4996 29.6812C87.0835 29.6812 86.6844 29.8464 86.3902 30.1407Z" fill="#4A515E"/>
</svg>
