<svg width="50" height="50" viewBox="0 0 50 50" fill="none" xmlns="http://www.w3.org/2000/svg">
<path d="M44.8545 14.8958C44.5378 14.713 44.1785 14.6167 43.8128 14.6167C43.4471 14.6167 43.0879 14.713 42.7712 14.8958L35.417 18.5208C35.3576 16.9033 34.6731 15.3718 33.5073 14.2488C32.3416 13.1258 30.7856 12.4989 29.167 12.5H10.417C8.75939 12.5 7.16968 13.1585 5.99758 14.3306C4.82547 15.5027 4.16699 17.0924 4.16699 18.75V31.25C4.16699 32.9076 4.82547 34.4973 5.99758 35.6694C7.16968 36.8415 8.75939 37.5 10.417 37.5H29.167C30.7856 37.5011 32.3416 36.8742 33.5073 35.7512C34.6731 34.6282 35.3576 33.0967 35.417 31.4792L42.8337 35.1875C43.1176 35.3331 43.4313 35.4115 43.7503 35.4167C44.1404 35.4179 44.523 35.3096 44.8545 35.1042C45.1547 34.9165 45.4022 34.6555 45.5735 34.3456C45.7448 34.0358 45.8344 33.6874 45.8337 33.3333V16.6667C45.8344 16.3126 45.7448 15.9642 45.5735 15.6544C45.4022 15.3445 45.1547 15.0835 44.8545 14.8958ZM31.2503 31.25C31.2503 31.8025 31.0308 32.3324 30.6401 32.7231C30.2494 33.1138 29.7195 33.3333 29.167 33.3333H10.417C9.86446 33.3333 9.33455 33.1138 8.94385 32.7231C8.55315 32.3324 8.33366 31.8025 8.33366 31.25V18.75C8.33366 18.1975 8.55315 17.6676 8.94385 17.2769C9.33455 16.8862 9.86446 16.6667 10.417 16.6667H29.167C29.7195 16.6667 30.2494 16.8862 30.6401 17.2769C31.0308 17.6676 31.2503 18.1975 31.2503 18.75V31.25ZM41.667 29.9583L35.417 26.8333V23.1667L41.667 20.0417V29.9583Z" fill="#7B42D9"/>
</svg>
