<svg width="50" height="50" viewBox="0 0 50 50" fill="none" xmlns="http://www.w3.org/2000/svg">
<path d="M40.6254 26.5625C40.6226 25.5954 40.3209 24.6528 39.7614 23.864C39.2019 23.0751 38.4122 22.4786 37.5004 22.1563V7.8125C37.5004 6.5693 37.0065 5.37701 36.1274 4.49794C35.2483 3.61886 34.0561 3.125 32.8129 3.125H17.1879C15.9447 3.125 14.7524 3.61886 13.8733 4.49794C12.9942 5.37701 12.5004 6.5693 12.5004 7.8125V22.1563C11.5954 22.4847 10.8136 23.0838 10.261 23.8721C9.70852 24.6605 9.41211 25.5998 9.41211 26.5625C9.41211 27.5252 9.70852 28.4645 10.261 29.2529C10.8136 30.0412 11.5954 30.6403 12.5004 30.9687V42.1875C12.5004 43.4307 12.9942 44.623 13.8733 45.5021C14.7524 46.3811 15.9447 46.875 17.1879 46.875C18.4311 46.875 19.6233 46.3811 20.5024 45.5021C21.3815 44.623 21.8754 43.4307 21.8754 42.1875V31.25H28.1254V42.1875C28.1254 43.4307 28.6192 44.623 29.4983 45.5021C30.3774 46.3811 31.5697 46.875 32.8129 46.875C34.0561 46.875 35.2483 46.3811 36.1274 45.5021C37.0065 44.623 37.5004 43.4307 37.5004 42.1875V30.9687C38.4122 30.6464 39.2019 30.0499 39.7614 29.261C40.3209 28.4722 40.6226 27.5296 40.6254 26.5625ZM15.6254 7.8125C15.6254 7.3981 15.79 7.00067 16.083 6.70765C16.376 6.41462 16.7735 6.25 17.1879 6.25H32.8129C33.2273 6.25 33.6247 6.41462 33.9177 6.70765C34.2107 7.00067 34.3754 7.3981 34.3754 7.8125V21.875H15.6254V7.8125ZM18.7504 42.1875C18.7504 42.6019 18.5857 42.9993 18.2927 43.2924C17.9997 43.5854 17.6023 43.75 17.1879 43.75C16.7735 43.75 16.376 43.5854 16.083 43.2924C15.79 42.9993 15.6254 42.6019 15.6254 42.1875V31.25H18.7504V42.1875ZM34.3754 42.1875C34.3754 42.6019 34.2107 42.9993 33.9177 43.2924C33.6247 43.5854 33.2273 43.75 32.8129 43.75C32.3985 43.75 32.001 43.5854 31.708 43.2924C31.415 42.9993 31.2504 42.6019 31.2504 42.1875V31.25H34.3754V42.1875ZM35.9379 28.125H14.0629C13.6485 28.125 13.251 27.9604 12.958 27.6674C12.665 27.3743 12.5004 26.9769 12.5004 26.5625C12.5004 26.1481 12.665 25.7507 12.958 25.4576C13.251 25.1646 13.6485 25 14.0629 25H35.9379C36.3523 25 36.7497 25.1646 37.0427 25.4576C37.3357 25.7507 37.5004 26.1481 37.5004 26.5625C37.5004 26.9769 37.3357 27.3743 37.0427 27.6674C36.7497 27.9604 36.3523 28.125 35.9379 28.125Z" fill="#7B42D9"/>
</svg>
