<svg width="50" height="50" viewBox="0 0 50 50" fill="none" xmlns="http://www.w3.org/2000/svg">
<path d="M46.875 35.6719H3.125C2.26562 35.6719 1.5625 34.9687 1.5625 34.1094V3.125C1.5625 2.26562 2.26562 1.5625 3.125 1.5625H46.875C47.7344 1.5625 48.4375 2.26562 48.4375 3.125V34.1094C48.4375 34.9844 47.7344 35.6719 46.875 35.6719ZM4.6875 32.5469H45.3125V4.6875H4.6875V32.5469Z" fill="#7B42D9"/>
<path d="M40.6253 48.4375C40.2816 48.4375 39.9222 48.3281 39.641 48.0781L25.0003 36.125L10.3597 48.0781C10.2008 48.2088 10.0177 48.3068 9.82092 48.3666C9.62409 48.4263 9.4174 48.4466 9.21271 48.4263C9.00802 48.406 8.80936 48.3454 8.62812 48.2481C8.44688 48.1508 8.28664 48.0187 8.15658 47.8594C8.0259 47.7005 7.92788 47.5174 7.86814 47.3206C7.8084 47.1238 7.7881 46.9171 7.80843 46.7124C7.82875 46.5077 7.88929 46.309 7.98657 46.1278C8.08386 45.9466 8.21597 45.7863 8.37533 45.6563L24.0003 32.8906C24.5784 32.4219 25.4066 32.4219 25.9691 32.8906L41.5941 45.6563C41.7534 45.7863 41.8855 45.9466 41.9828 46.1278C42.0801 46.309 42.1407 46.5077 42.161 46.7124C42.1813 46.9171 42.161 47.1238 42.1013 47.3206C42.0415 47.5174 41.9435 47.7005 41.8128 47.8594C41.5316 48.2344 41.0784 48.4375 40.6253 48.4375Z" fill="#7B42D9"/>
<path d="M25 48.4375C24.1406 48.4375 23.4375 47.7344 23.4375 46.875V34.1094C23.4375 33.25 24.1406 32.5469 25 32.5469C25.8594 32.5469 26.5625 33.25 26.5625 34.1094V46.875C26.5625 47.7344 25.8594 48.4375 25 48.4375ZM46.875 10.9375H3.125C2.26562 10.9375 1.5625 10.2344 1.5625 9.375C1.5625 8.51562 2.26562 7.8125 3.125 7.8125H46.875C47.7344 7.8125 48.4375 8.51562 48.4375 9.375C48.4375 10.2344 47.7344 10.9375 46.875 10.9375ZM46.875 29.4219H3.125C2.26562 29.4219 1.5625 28.7187 1.5625 27.8594C1.5625 27 2.26562 26.2969 3.125 26.2969H46.875C47.7344 26.2969 48.4375 27 48.4375 27.8594C48.4375 28.7187 47.7344 29.4219 46.875 29.4219Z" fill="#7B42D9"/>
</svg>
