<svg width="50" height="50" viewBox="0 0 50 50" fill="none" xmlns="http://www.w3.org/2000/svg">
<path d="M25.0001 31.2495C23.7639 31.2495 22.5556 31.6161 21.5277 32.3028C20.4999 32.9896 19.6989 33.9657 19.2258 35.1077C18.7528 36.2498 18.629 37.5065 18.8702 38.7188C19.1113 39.9312 19.7066 41.0449 20.5806 41.9189C21.4547 42.793 22.5684 43.3883 23.7807 43.6294C24.9931 43.8706 26.2498 43.7468 27.3918 43.2738C28.5339 42.8007 29.51 41.9996 30.1967 40.9718C30.8835 39.944 31.2501 38.7356 31.2501 37.4995C31.2501 35.8419 30.5916 34.2522 29.4195 33.0801C28.2474 31.908 26.6577 31.2495 25.0001 31.2495ZM25.0001 39.5828C24.588 39.5828 24.1852 39.4607 23.8426 39.2317C23.5 39.0028 23.233 38.6775 23.0753 38.2968C22.9176 37.9161 22.8764 37.4972 22.9568 37.0931C23.0371 36.6889 23.2356 36.3177 23.5269 36.0264C23.8183 35.735 24.1895 35.5366 24.5936 35.4562C24.9977 35.3758 25.4166 35.4171 25.7973 35.5748C26.178 35.7324 26.5034 35.9995 26.7323 36.3421C26.9612 36.6847 27.0834 37.0875 27.0834 37.4995C27.0834 38.0521 26.8639 38.582 26.4732 38.9727C26.0825 39.3634 25.5526 39.5828 25.0001 39.5828ZM25.0001 22.9162C21.1349 22.9295 17.4304 24.4637 14.6876 27.187C14.2995 27.5774 14.0817 28.1054 14.0817 28.6558C14.0817 29.2062 14.2995 29.7342 14.6876 30.1245C15.0779 30.5125 15.6059 30.7303 16.1563 30.7303C16.7067 30.7303 17.2347 30.5125 17.6251 30.1245C18.5927 29.1544 19.7422 28.3848 21.0077 27.8597C22.2732 27.3345 23.6299 27.0642 25.0001 27.0642C26.3702 27.0642 27.7269 27.3345 28.9924 27.8597C30.258 28.3848 31.4074 29.1544 32.3751 30.1245C32.7597 30.517 33.2839 30.7417 33.8334 30.7495C34.2561 30.7738 34.6762 30.6688 35.0377 30.4484C35.3992 30.228 35.6849 29.9027 35.8569 29.5157C36.0289 29.1288 36.0788 28.6987 36.0002 28.2827C35.9216 27.8667 35.718 27.4845 35.4167 27.187C34.0459 25.826 32.4205 24.7483 30.6332 24.0155C28.8459 23.2827 26.9317 22.9092 25.0001 22.9162ZM25.0001 14.5828C18.925 14.599 13.1013 17.0093 8.79173 21.2912C8.59748 21.4854 8.4434 21.716 8.33827 21.9698C8.23314 22.2236 8.17904 22.4956 8.17904 22.7703C8.17904 23.3251 8.39943 23.8572 8.79173 24.2495C9.18403 24.6418 9.7161 24.8622 10.2709 24.8622C10.8257 24.8622 11.3578 24.6418 11.7501 24.2495C15.2657 20.7383 20.0313 18.766 25.0001 18.766C29.9688 18.766 34.7344 20.7383 38.2501 24.2495C38.4447 24.4426 38.6756 24.5954 38.9294 24.699C39.1832 24.8027 39.455 24.8553 39.7292 24.8537C40.0034 24.8553 40.2752 24.8027 40.529 24.699C40.7829 24.5954 41.0137 24.4426 41.2084 24.2495C41.4037 24.0558 41.5586 23.8254 41.6644 23.5715C41.7702 23.3177 41.8246 23.0454 41.8246 22.7703C41.8246 22.4953 41.7702 22.223 41.6644 21.9691C41.5586 21.7153 41.4037 21.4849 41.2084 21.2912C36.8989 17.0093 31.0751 14.599 25.0001 14.5828ZM47.1042 15.3953C44.2021 12.4914 40.7563 10.1877 36.9635 8.61603C33.1708 7.04432 29.1056 6.23535 25.0001 6.23535C20.8946 6.23535 16.8293 7.04432 13.0366 8.61603C9.24385 10.1877 5.79799 12.4914 2.89589 15.3953C2.50359 15.7876 2.2832 16.3197 2.2832 16.8745C2.2832 17.4293 2.50359 17.9614 2.89589 18.3537C3.28819 18.746 3.82027 18.9664 4.37506 18.9664C4.92986 18.9664 5.46193 18.746 5.85423 18.3537C10.9329 13.2776 17.8196 10.4261 25.0001 10.4261C32.1806 10.4261 39.0672 13.2776 44.1459 18.3537C44.3396 18.5489 44.57 18.7039 44.8239 18.8097C45.0777 18.9155 45.35 18.9699 45.6251 18.9699C45.9001 18.9699 46.1724 18.9155 46.4263 18.8097C46.6801 18.7039 46.9106 18.5489 47.1042 18.3537C47.2995 18.16 47.4545 17.9296 47.5602 17.6757C47.666 17.4218 47.7205 17.1495 47.7205 16.8745C47.7205 16.5995 47.666 16.3272 47.5602 16.0733C47.4545 15.8194 47.2995 15.589 47.1042 15.3953Z" fill="#7B42D9"/>
</svg>
